<svg width="1600" height="900" viewBox="0 0 1600 900" fill="none" xmlns="http://www.w3.org/2000/svg">
  <defs>
    <linearGradient id="glow" x1="0" y1="0" x2="1" y2="1">
      <stop offset="0%" stop-color="#7EE0FF" stop-opacity="0.9"/>
      <stop offset="100%" stop-color="#4CC0FF" stop-opacity="0.3"/>
    </linearGradient>
  </defs>
  <g stroke="url(#glow)" stroke-width="1.3" stroke-linecap="round" stroke-opacity="0.55">
    <line x1="120" y1="640" x2="260" y2="520"/>
    <line x1="260" y1="520" x2="190" y2="430"/>
    <line x1="260" y1="520" x2="360" y2="470"/>
    <line x1="360" y1="470" x2="420" y2="560"/>
    <line x1="420" y1="560" x2="520" y2="500"/>
    <line x1="520" y1="500" x2="610" y2="620"/>
    <line x1="610" y1="620" x2="520" y2="720"/>
    <line x1="520" y1="720" x2="360" y2="680"/>
    <line x1="190" y1="430" x2="310" y2="360"/>
    <line x1="310" y1="360" x2="420" y2="410"/>
    <line x1="420" y1="410" x2="520" y2="340"/>
    <line x1="520" y1="340" x2="660" y2="380"/>
    <line x1="660" y1="380" x2="740" y2="300"/>
    <line x1="740" y1="300" x2="860" y2="340"/>
    <line x1="860" y1="340" x2="960" y2="260"/>
    <line x1="960" y1="260" x2="1100" y2="320"/>
    <line x1="1100" y1="320" x2="1220" y2="260"/>
    <line x1="1100" y1="320" x2="1160" y2="420"/>
    <line x1="1160" y1="420" x2="1240" y2="500"/>
    <line x1="1240" y1="500" x2="1380" y2="460"/>
    <line x1="1240" y1="500" x2="1300" y2="600"/>
    <line x1="1300" y1="600" x2="1180" y2="680"/>
    <line x1="1180" y1="680" x2="1040" y2="620"/>
    <line x1="1040" y1="620" x2="940" y2="520"/>
    <line x1="940" y1="520" x2="820" y2="600"/>
    <line x1="820" y1="600" x2="680" y2="540"/>
    <line x1="680" y1="540" x2="760" y2="450"/>
    <line x1="760" y1="450" x2="880" y2="420"/>
    <line x1="880" y1="420" x2="980" y2="500"/>
    <line x1="520" y1="500" x2="680" y2="420"/>
    <line x1="260" y1="520" x2="140" y2="480"/>
  </g>
  <g fill="#B8EEFF" fill-opacity="0.85">
    <circle cx="120" cy="640" r="4"/>
    <circle cx="260" cy="520" r="4.5"/>
    <circle cx="190" cy="430" r="3.8"/>
    <circle cx="360" cy="470" r="4"/>
    <circle cx="420" cy="560" r="4.2"/>
    <circle cx="520" cy="500" r="5.2"/>
    <circle cx="610" cy="620" r="4.6"/>
    <circle cx="520" cy="720" r="4.4"/>
    <circle cx="360" cy="680" r="3.6"/>
    <circle cx="310" cy="360" r="3.6"/>
    <circle cx="420" cy="410" r="3.8"/>
    <circle cx="520" cy="340" r="4"/>
    <circle cx="660" cy="380" r="3.8"/>
    <circle cx="740" cy="300" r="4.2"/>
    <circle cx="860" cy="340" r="4.2"/>
    <circle cx="960" cy="260" r="5.0"/>
    <circle cx="1100" cy="320" r="4.6"/>
    <circle cx="1220" cy="260" r="3.8"/>
    <circle cx="1160" cy="420" r="4.2"/>
    <circle cx="1240" cy="500" r="5.0"/>
    <circle cx="1380" cy="460" r="4.2"/>
    <circle cx="1300" cy="600" r="4.6"/>
    <circle cx="1180" cy="680" r="4.0"/>
    <circle cx="1040" cy="620" r="4.4"/>
    <circle cx="940" cy="520" r="3.8"/>
    <circle cx="820" cy="600" r="4.8"/>
    <circle cx="680" cy="540" r="4.0"/>
    <circle cx="760" cy="450" r="3.6"/>
    <circle cx="880" cy="420" r="4.4"/>
    <circle cx="980" cy="500" r="4.0"/>
    <circle cx="680" cy="420" r="3.6"/>
    <circle cx="140" cy="480" r="3.6"/>
  </g>
</svg>
